<svg height="100%" id="Layer_1" style="enable-background:new 0 0 512 512;" version="1.1" viewBox="0 0 512 512" width="40px" xml:space="preserve" xmlns="http://www.w3.org/2000/svg" xmlns:xlink="http://www.w3.org/1999/xlink">

 <g>
  <title>Layer 1</title>
  <circle id="svg_1" fill="#46344e" r="243" cy="263.55" cx="256"/>
  <path id="svg_4" opacity="0.7" fill="#46344e" d="m146.219,405.407c-31.43,0 -57,-25.57 -57,-57l0,-211.824c0,-31.43 25.57,-57 57,-57l211.824,0c31.43,0 57,25.57 57,57l0,211.823c0,31.43 -25.57,57 -57,57l-211.824,0l0,0.001z"/>
  <path id="svg_5" fill="#FFFFFF" d="m358.043,91.583c24.75,0 45,20.25 45,45l0,211.824c0,24.75 -20.25,45 -45,45l-211.824,0c-24.75,0 -45,-20.25 -45,-45l0,-211.824c0,-24.75 20.25,-45 45,-45l211.824,0m0,-24l-211.824,0c-38.047,0 -69,30.953 -69,69l0,211.824c0,38.047 30.953,69 69,69l211.824,0c38.047,0 69,-30.953 69,-69l0,-211.824c0,-38.046 -30.954,-69 -69,-69l0,0z"/>
  <path id="svg_8" fill="#ffe31e" d="m448,116.649l-218.324,238.27l-114.779,-114.703l-0.052,-122.424l114.779,114.335l218.34,-199.589l0.036,84.111z"/>
  <path id="svg_11" fill="#fff08e" d="m447.96,32.539l-218.34,199.59l-114.78,-114.34l0.01,17l109.1,108.68l218.34,-199.59l0.04,78.96l5.67,-6.19l-0.04,-84.11z"/>
  <path id="svg_14" fill="#fff08e" d="m232.51,346.409l-114.78,-114.7l-0.05,-111.09l-2.84,-2.83l0.06,122.43l114.78,114.7l218.32,-238.27l0,-5.41l-215.49,235.17z"/>
 </g>
</svg>