<?xml version="1.0" encoding="iso-8859-1"?>
<!-- Generator: Adobe Illustrator 19.0.0, SVG Export Plug-In . SVG Version: 6.00 Build 0)  -->
<svg version="1.1" id="Layer_1" xmlns="http://www.w3.org/2000/svg" xmlns:xlink="http://www.w3.org/1999/xlink" x="0px" y="0px"
	 viewBox="0 0 511.988 511.988" style="enable-background:new 0 0 511.988 511.988;" xml:space="preserve">
<g>
	<g>
		<path d="M270.352,249.666c1.646,6.337,1.757,13.048,0.194,19.647l-21.079,89.097l1.8,26.479c7.42-2.542,13.14-9.106,14.168-17.413
			l14.581-117.694C276.884,249.981,274.038,249.994,270.352,249.666z"/>
	</g>
</g>
<g>
	<g>
		<path d="M446.332,147.953c-10.824-22.787-25.385-53.43-34.895-73.438c-1.438-3.025-3.271-5.942-5.382-8.544
			c-5.889-7.258-20.359-25.063-47.081-57.819c-6.758-8.286-19.631-7.647-25.535,1.264l-49.764,75.099
			c-4.843,7.308-2.844,17.159,4.464,22.003c7.32,4.849,17.167,2.834,22.003-4.465l37.854-57.127l31.745,38.922l-86.676,40.998
			c17.498,4.941,32.479,17.249,40.448,34.094c12.439,26.298,5.23,56.352-14.741,74.445l41.396,137.588
			c3.368,11.193,15.171,17.538,26.367,14.171c11.193-3.368,17.539-15.174,14.17-26.368l-46.817-155.606l60.348-30.585
			l-16.219,68.554c-0.366,1.549-0.498,3.144-0.391,4.732l5.106,75.097c0.597,8.772,8.199,15.36,16.915,14.761
			c8.748-0.594,15.357-8.168,14.763-16.915l-4.944-72.702l18.833-79.53C449.78,160.331,449.09,153.755,446.332,147.953z"/>
	</g>
</g>
<g>
	<g>
		<circle cx="475.252" cy="90.596" r="36.736"/>
	</g>
</g>
<g>
	<g>
		<path d="M244.934,250.586c-11.753-24.839-32.611-68.763-39.23-82.698c-1.445-3.042-3.288-5.972-5.412-8.586
			c-4.919-6.052-17.712-21.713-51.699-63.386c-7.425-9.107-21.506-8.351-27.959,1.385l-54.485,82.226
			c-5.302,8.003-3.114,18.787,4.889,24.09c8.002,5.302,18.786,3.115,24.09-4.888l41.447-62.548l34.756,42.616
			c-63.351,29.965-133.374,63.262-133.374,63.262c-5.257,3.627-9.012,9.38-9.86,16.217L0.178,483.642
			c-1.574,12.702,7.449,24.275,20.151,25.849c12.654,1.576,24.27-7.41,25.849-20.15l25.325-204.426l25.57,32.667l52.829,175.586
			c3.685,12.253,16.605,19.203,28.869,15.516c12.258-3.688,19.204-16.613,15.515-28.87l-51.26-170.373l66.076-33.487l-17.758,75.06
			c-0.402,1.695-0.545,3.442-0.428,5.181l5.589,82.224c0.651,9.581,8.946,16.813,18.521,16.163
			c9.577-0.651,16.814-8.943,16.163-18.521l-5.412-79.601l20.962-88.832C248.091,261.897,247.453,255.91,244.934,250.586z"/>
	</g>
</g>
<g>
	<g>
		<path d="M310.693,166.013c-10.483-18.111-33.13-25.096-51.973-16.189c-0.003,0.001-0.006,0.002-0.009,0.004
			c-20.166,9.538-28.618,33.563-19.162,53.558c9.553,20.198,33.64,28.587,53.558,19.162
			C314.293,212.526,322.55,186.544,310.693,166.013z"/>
	</g>
</g>
<g>
</g>
<g>
</g>
<g>
</g>
<g>
</g>
<g>
</g>
<g>
</g>
<g>
</g>
<g>
</g>
<g>
</g>
<g>
</g>
<g>
</g>
<g>
</g>
<g>
</g>
<g>
</g>
<g>
</g>
</svg>
