<?xml version="1.0" encoding="iso-8859-1"?>
<!-- Generator: Adobe Illustrator 16.0.0, SVG Export Plug-In . SVG Version: 6.00 Build 0)  -->
<!DOCTYPE svg PUBLIC "-//W3C//DTD SVG 1.1//EN" "http://www.w3.org/Graphics/SVG/1.1/DTD/svg11.dtd">
<svg version="1.1" id="Capa_1" xmlns="http://www.w3.org/2000/svg" xmlns:xlink="http://www.w3.org/1999/xlink" x="0px" y="0px"
	 width="150.234px" height="150.234px" viewBox="0 0 150.234 150.234" style="enable-background:new 0 0 150.234 150.234;"
	 xml:space="preserve">
<g>
	<path d="M12.085,49.785c0-5.721,4.641-10.362,10.373-10.362c5.72,0,10.361,4.641,10.361,10.362c0,5.721-4.641,10.373-10.361,10.373
		C16.727,60.157,12.085,55.511,12.085,49.785z M145.631,103.908H4.606c-2.55,0-4.606,2.057-4.606,4.602s2.056,4.607,4.606,4.607
		h141.025c2.553,0,4.603-2.062,4.603-4.607S148.184,103.908,145.631,103.908z M29.948,95.954c-0.262,2.525,1.577,4.785,4.108,5.048
		c0.164,0.018,0.325,0.022,0.475,0.022c2.331,0,4.32-1.756,4.567-4.137l2.219-21.882l3.768-16.288l63.458,42.131
		c0.784,0.516,1.668,0.769,2.54,0.769c1.493,0,2.942-0.724,3.847-2.06c1.401-2.111,0.827-4.979-1.288-6.392L80.528,71.183
		l13.91-4.637l27.894,1.681c2.792,0.177,4.729-1.788,4.87-4.321c0.148-2.544-1.771-4.728-4.314-4.875l-28.785-1.737
		c-0.654-0.056-1.196,0.051-1.746,0.229l-21.591,7.19l-18.9-12.553l12.847-5.743l25.336,1.658c2.374,0.198,4.727-1.753,4.902-4.306
		c0.149-2.528-1.76-4.731-4.305-4.887l-26.489-1.737c-0.754-0.101-1.497,0.09-2.181,0.397l-21.868,9.784
		c-1.316,0.583-2.279,1.754-2.61,3.166l-5.262,23.007L29.948,95.954z"/>
</g>
<g>
</g>
<g>
</g>
<g>
</g>
<g>
</g>
<g>
</g>
<g>
</g>
<g>
</g>
<g>
</g>
<g>
</g>
<g>
</g>
<g>
</g>
<g>
</g>
<g>
</g>
<g>
</g>
<g>
</g>
</svg>
