<?xml version="1.0" encoding="iso-8859-1"?>
<!-- Generator: Adobe Illustrator 16.0.0, SVG Export Plug-In . SVG Version: 6.00 Build 0)  -->
<!DOCTYPE svg PUBLIC "-//W3C//DTD SVG 1.1//EN" "http://www.w3.org/Graphics/SVG/1.1/DTD/svg11.dtd">
<svg version="1.1" id="Capa_1" xmlns="http://www.w3.org/2000/svg" xmlns:xlink="http://www.w3.org/1999/xlink" x="0px" y="0px"
	 width="168.737px" height="168.736px" viewBox="0 0 168.737 168.736" style="enable-background:new 0 0 168.737 168.736;"
	 xml:space="preserve">
<g>
	<path d="M36.599,110.579l10.19-52.641c0.298-1.538,1.285-2.856,2.679-3.571c1.403-0.697,3.038-0.743,4.472-0.082l47.542,22.079
		c0.877,0.393,1.607,1.035,2.131,1.839l18.341,28.235l34.635-40.648c1.827-2.158,5.042-2.408,7.173-0.587
		c2.156,1.833,2.412,5.044,0.585,7.185l-39.074,45.852c-0.975,1.145-2.393,1.784-3.879,1.784c-0.109,0-0.219,0-0.329-0.012
		c-1.607-0.11-3.062-0.944-3.945-2.314L95.855,84.98L55.542,66.256l-8.96,46.241c-0.524,2.765-3.142,4.567-5.967,4.044
		C37.872,116.011,36.063,113.332,36.599,110.579z M163.652,123.854H5.093c-2.819,0-5.093,2.277-5.093,5.091s2.274,5.084,5.093,5.084
		h158.559c2.813,0,5.085-2.271,5.085-5.084S166.465,123.854,163.652,123.854z M29.934,62.722c7.739,0,14.011-6.272,14.011-14.002
		c0-7.739-6.266-14.012-14.011-14.012c-7.745,0-14.011,6.272-14.011,14.012C15.917,56.45,22.183,62.722,29.934,62.722z"/>
</g>
<g>
</g>
<g>
</g>
<g>
</g>
<g>
</g>
<g>
</g>
<g>
</g>
<g>
</g>
<g>
</g>
<g>
</g>
<g>
</g>
<g>
</g>
<g>
</g>
<g>
</g>
<g>
</g>
<g>
</g>
</svg>
