<?xml version="1.0" encoding="iso-8859-1"?>
<!-- Generator: Adobe Illustrator 16.0.0, SVG Export Plug-In . SVG Version: 6.00 Build 0)  -->
<!DOCTYPE svg PUBLIC "-//W3C//DTD SVG 1.1//EN" "http://www.w3.org/Graphics/SVG/1.1/DTD/svg11.dtd">
<svg version="1.1" id="Capa_1" xmlns="http://www.w3.org/2000/svg" xmlns:xlink="http://www.w3.org/1999/xlink" x="0px" y="0px"
	 width="193.967px" height="193.968px" viewBox="0 0 193.967 193.968" style="enable-background:new 0 0 193.967 193.968;"
	 xml:space="preserve">
<g>
	<g>
		<circle cx="14.985" cy="125.701" r="14.985"/>
		<path d="M192.777,136.077l-31.634-45.794c-1.071-1.577-2.776-2.6-4.664-2.822c-1.863-0.244-3.775,0.353-5.212,1.632L109.854,125.7
			H53.53l14.848-33.387C80.343,91.814,89.9,82.017,89.9,69.934c0-12.41-10.062-22.473-22.472-22.473
			c-12.407,0-22.472,10.057-22.472,22.473c0,7.937,4.162,14.906,10.388,18.897l-18.143,40.834c-0.91,2.046-0.725,4.445,0.512,6.332
			c1.221,1.895,3.328,3.033,5.586,3.033h69.094c1.632,0,3.202-0.609,4.408-1.693l37.667-33.308l27.377,39.604
			c1.279,1.887,3.361,2.873,5.469,2.873c1.327,0,2.643-0.377,3.787-1.168C194.123,143.243,194.877,139.103,192.777,136.077z"/>
	</g>
</g>
<g>
</g>
<g>
</g>
<g>
</g>
<g>
</g>
<g>
</g>
<g>
</g>
<g>
</g>
<g>
</g>
<g>
</g>
<g>
</g>
<g>
</g>
<g>
</g>
<g>
</g>
<g>
</g>
<g>
</g>
</svg>
