<?xml version="1.0" encoding="iso-8859-1"?>
<!-- Generator: Adobe Illustrator 16.0.0, SVG Export Plug-In . SVG Version: 6.00 Build 0)  -->
<!DOCTYPE svg PUBLIC "-//W3C//DTD SVG 1.1//EN" "http://www.w3.org/Graphics/SVG/1.1/DTD/svg11.dtd">
<svg version="1.1" id="Capa_1" xmlns="http://www.w3.org/2000/svg" xmlns:xlink="http://www.w3.org/1999/xlink" x="0px" y="0px"
	 width="223.688px" height="223.688px" viewBox="0 0 223.688 223.688" style="enable-background:new 0 0 223.688 223.688;"
	 xml:space="preserve">
<g>
	<path d="M120.547,72.525l36.285,19.267c1.79,0.95,2.978,2.752,3.148,4.78l2.027,27.133l25.087-22.896
		c2.424-2.21,6.162-2.046,8.367,0.378c2.21,2.43,2.033,6.15-0.378,8.366l-34.087,31.109c-1.108,1.023-2.533,1.553-3.995,1.553
		c-0.73,0-1.473-0.128-2.186-0.407c-2.106-0.841-3.556-2.802-3.732-5.066l-2.716-36.005L114.96,83.005
		c-2.893-1.528-4.004-5.108-2.457-8.007C114.056,72.094,117.643,70.979,120.547,72.525z M222.461,103.593l-41.619,54.175h14.692
		c3.271,0,5.919,2.648,5.919,5.925c0,3.264-2.648,5.919-5.919,5.919H5.919c-3.276,0-5.919-2.655-5.919-5.919
		c0-3.276,2.643-5.925,5.919-5.925h8.248c6.503-29.186,16.075-73.319,16.897-80.054l-10.568-6.808
		c-2.749-1.778-3.556-5.444-1.79-8.196c1.778-2.746,5.432-3.525,8.193-1.778l54.982,35.366l25.721-39.537
		c1.791-2.74,5.496-3.501,8.193-1.729c2.737,1.778,3.517,5.456,1.735,8.19L91.84,102.71l77.859,50.083l43.337-56.422
		c2.009-2.594,5.735-3.057,8.317-1.09C223.965,97.278,224.458,101.017,222.461,103.593z M155.53,157.762l-70.145-45.114
		l-6.516,10.017c2.29,2.953,3.724,6.612,3.724,10.644c0,9.608-7.782,17.415-17.403,17.415c-9.621,0-17.403-7.807-17.403-17.415
		s7.782-17.415,17.403-17.415c1.267,0,2.488,0.146,3.69,0.396l6.562-10.054l-33.585-21.61c-1.689,9.548-5.879,29.794-15.53,73.137
		H155.53z M65.19,125.021c-4.57,0-8.293,3.714-8.293,8.287c0,4.555,3.724,8.294,8.293,8.294c4.558,0,8.281-3.739,8.281-8.294
		c0-2.886-1.559-5.315-3.799-6.783c-0.098-0.073-0.21-0.036-0.305-0.109c-0.149-0.104-0.244-0.25-0.387-0.372
		C67.827,125.459,66.567,125.021,65.19,125.021z M202.208,93.32c8.599,0,15.546-6.972,15.546-15.558
		c0-8.586-6.947-15.552-15.546-15.552c-8.604,0-15.552,6.966-15.552,15.552C186.657,86.348,193.605,93.32,202.208,93.32z
		 M60.457,133.308c0,2.606,2.128,4.731,4.734,4.731c2.594,0,4.713-2.125,4.713-4.731s-2.119-4.726-4.713-4.726
		C62.584,128.589,60.457,130.701,60.457,133.308z"/>
</g>
<g>
</g>
<g>
</g>
<g>
</g>
<g>
</g>
<g>
</g>
<g>
</g>
<g>
</g>
<g>
</g>
<g>
</g>
<g>
</g>
<g>
</g>
<g>
</g>
<g>
</g>
<g>
</g>
<g>
</g>
</svg>
