<?xml version="1.0" encoding="iso-8859-1"?>
<!-- Generator: Adobe Illustrator 16.0.0, SVG Export Plug-In . SVG Version: 6.00 Build 0)  -->
<!DOCTYPE svg PUBLIC "-//W3C//DTD SVG 1.1//EN" "http://www.w3.org/Graphics/SVG/1.1/DTD/svg11.dtd">
<svg version="1.1" id="Capa_1" xmlns="http://www.w3.org/2000/svg" xmlns:xlink="http://www.w3.org/1999/xlink" x="0px" y="0px"
	 width="188.105px" height="188.105px" viewBox="0 0 188.105 188.105" style="enable-background:new 0 0 188.105 188.105;"
	 xml:space="preserve">
<g>
	<path d="M137.432,22.003c1.108,1.617,1.267,3.681,0.401,5.432l-18.541,37.923l11.35,22.71c0.877,1.744,0.725,3.836-0.371,5.438
		l-23.278,34.032c-1.048,1.522-2.734,2.344-4.451,2.344c-1.035,0-2.095-0.304-3.015-0.938c-2.457-1.68-3.081-5.029-1.409-7.465
		l21.497-31.429l-11.118-22.247c-0.755-1.504-0.755-3.261-0.013-4.777l15.479-31.663l-15.417,1.485l-6.735,11.947h2.546
		c2.972,0,5.37,2.411,5.37,5.367c0,2.975-2.405,5.377-5.37,5.377H75.697v120.924h13.436c2.975,0,5.376,2.412,5.376,5.377
		c0,2.966-2.402,5.365-5.376,5.365H73.115c-0.831,0.523-1.748,0.9-2.795,0.9s-1.964-0.377-2.792-0.9H54.196
		c-2.975,0-5.374-2.399-5.374-5.365c0-2.965,2.399-5.377,5.374-5.377h10.75V55.539H30.01c-2.975,0-5.374-2.408-5.374-5.377
		c0-2.968,2.399-5.367,5.374-5.367h59.448l11.116-19.668c0.87-1.52,2.417-2.536,4.165-2.719l27.766-2.686
		C134.424,19.585,136.312,20.401,137.432,22.003z M150.037,0c-7.423,0-13.438,6.016-13.438,13.43
		c0,7.413,6.016,13.433,13.438,13.433c7.416,0,13.433-6.02,13.433-13.433C163.469,6.016,157.453,0,150.037,0z"/>
</g>
<g>
</g>
<g>
</g>
<g>
</g>
<g>
</g>
<g>
</g>
<g>
</g>
<g>
</g>
<g>
</g>
<g>
</g>
<g>
</g>
<g>
</g>
<g>
</g>
<g>
</g>
<g>
</g>
<g>
</g>
</svg>
