<?xml version="1.0" encoding="iso-8859-1"?>
<!-- Generator: Adobe Illustrator 16.0.0, SVG Export Plug-In . SVG Version: 6.00 Build 0)  -->
<!DOCTYPE svg PUBLIC "-//W3C//DTD SVG 1.1//EN" "http://www.w3.org/Graphics/SVG/1.1/DTD/svg11.dtd">
<svg version="1.1" id="Capa_1" xmlns="http://www.w3.org/2000/svg" xmlns:xlink="http://www.w3.org/1999/xlink" x="0px" y="0px"
	 width="202.227px" height="202.227px" viewBox="0 0 202.227 202.227" style="enable-background:new 0 0 202.227 202.227;"
	 xml:space="preserve">
<g>
	<path d="M181.934,142.778l-9.925,53.359c-0.664,3.574-3.788,6.089-7.319,6.089c-0.451,0-0.914-0.061-1.364-0.128
		c-4.043-0.743-6.71-4.64-5.961-8.683l9.597-51.557l-12.44-40.707L84.392,45.517c-2.506-1.988-3.465-5.344-2.375-8.354
		c1.084-3.011,4.141-4.944,7.183-4.92l47.114,1.172l20.027-25.59c2.539-3.248,7.222-3.79,10.443-1.267
		c3.251,2.521,3.812,7.198,1.272,10.452l-22.329,28.519c-1.437,1.845-3.891,2.737-6.04,2.85l-28.619-0.709l54.522,43.26
		c1.175,0.922,2.046,2.208,2.484,3.641l13.651,44.658C182.08,140.379,182.153,141.598,181.934,142.778z M59.861,43.422
		c11.993,0,21.72-9.74,21.72-21.705C81.582,9.706,71.854,0,59.861,0C47.884,0,38.157,9.718,38.157,21.717
		C38.157,33.688,47.878,43.422,59.861,43.422z M85.277,68.838c-35.935,0-65.108,29.155-65.108,65.123
		c0,35.981,29.173,65.13,65.108,65.13c35.984,0,65.163-29.155,65.163-65.13S121.262,68.838,85.277,68.838z"/>
</g>
<g>
</g>
<g>
</g>
<g>
</g>
<g>
</g>
<g>
</g>
<g>
</g>
<g>
</g>
<g>
</g>
<g>
</g>
<g>
</g>
<g>
</g>
<g>
</g>
<g>
</g>
<g>
</g>
<g>
</g>
</svg>
