<?xml version="1.0" encoding="iso-8859-1"?>
<!-- Generator: Adobe Illustrator 16.0.0, SVG Export Plug-In . SVG Version: 6.00 Build 0)  -->
<!DOCTYPE svg PUBLIC "-//W3C//DTD SVG 1.1//EN" "http://www.w3.org/Graphics/SVG/1.1/DTD/svg11.dtd">
<svg version="1.1" id="Capa_1" xmlns="http://www.w3.org/2000/svg" xmlns:xlink="http://www.w3.org/1999/xlink" x="0px" y="0px"
	 width="178.492px" height="178.492px" viewBox="0 0 178.492 178.492" style="enable-background:new 0 0 178.492 178.492;"
	 xml:space="preserve">
<g>
	<g>
		<path d="M31.837,46.545l17.342,0.387L22.828,62.484c-2.801,1.659-3.812,5.212-2.302,8.099l35.853,68.399
			c0.85,1.62,2.393,2.771,4.195,3.142c1.735,0.378,3.669-0.104,5.082-1.266l45.306-37.412l37.783,37.789
			c1.188,1.182,2.746,1.778,4.306,1.778c1.57,0,3.129-0.597,4.316-1.778c2.381-2.393,2.381-6.247,0-8.635l-41.704-41.698
			c-2.223-2.24-5.772-2.393-8.19-0.396l-43.769,36.151L34.026,70.065l39.756-23.486c2.35-1.385,3.498-4.159,2.801-6.798
			c-0.676-2.643-3.039-4.503-5.776-4.558l-38.066-0.859c-2.113-6.853-8.43-11.855-15.969-11.855C7.52,22.509,0,30.023,0,39.281
			c0,9.262,7.52,16.773,16.772,16.773C23.425,56.06,29.125,52.163,31.837,46.545z"/>
		<path d="M172.384,143.774H25.179c-3.374,0-6.104,2.734-6.104,6.107c0,3.361,2.731,6.102,6.104,6.102h147.206
			c3.373,0,6.107-2.728,6.107-6.102C178.492,146.508,175.757,143.774,172.384,143.774z"/>
	</g>
</g>
<g>
</g>
<g>
</g>
<g>
</g>
<g>
</g>
<g>
</g>
<g>
</g>
<g>
</g>
<g>
</g>
<g>
</g>
<g>
</g>
<g>
</g>
<g>
</g>
<g>
</g>
<g>
</g>
<g>
</g>
</svg>
